<svg width="120" height="120" viewBox="0 0 120 120" fill="none" xmlns="http://www.w3.org/2000/svg">
<g clip-path="url(#clip0)">
<path d="M99.8941 113.501C99.421 113.501 98.9672 113.313 98.6326 112.978C98.298 112.644 98.1101 112.19 98.1101 111.717V106.262C98.1101 106.028 98.1562 105.796 98.2459 105.579C98.3355 105.363 98.467 105.166 98.6326 105C98.7983 104.835 98.995 104.703 99.2114 104.614C99.4279 104.524 99.6599 104.478 99.8941 104.478C100.128 104.478 100.36 104.524 100.577 104.614C100.793 104.703 100.99 104.835 101.156 105C101.321 105.166 101.453 105.363 101.542 105.579C101.632 105.796 101.678 106.028 101.678 106.262V111.717C101.678 112.19 101.49 112.644 101.156 112.978C100.821 113.313 100.367 113.501 99.8941 113.501V113.501ZM86.0086 10.814V118.359C86.0086 119.264 85.275 120 84.368 120H6.37735C5.47032 120 4.73672 119.264 4.73672 118.359V10.814C4.73672 9.90693 5.47032 9.17334 6.37735 9.17334H24.5109L26.1422 11.5499H64.1203L66.2344 9.17334H84.368C85.275 9.17334 86.0086 9.90693 86.0086 10.814V10.814Z" fill="#4A80AA"/>
<path d="M49.0666 10.9563H41.6782C41.205 10.9563 40.7513 10.7684 40.4167 10.4338C40.0821 10.0992 39.8941 9.64543 39.8941 9.17227V5.47828C39.8941 2.45742 42.3516 0 45.3724 0C48.3933 0 50.8507 2.45742 50.8507 5.47828V9.1725C50.8506 9.64562 50.6626 10.0993 50.3281 10.4339C49.9935 10.7684 49.5398 10.9563 49.0666 10.9563V10.9563ZM43.462 7.38844H47.2826V5.47805C47.2826 4.42477 46.4255 3.56766 45.3722 3.56766C44.3189 3.56766 43.4618 4.42477 43.4618 5.47805V7.38844H43.462Z" fill="#FEE45A"/>
<path d="M78.6199 18.2021V110.971C78.6199 111.406 78.4471 111.824 78.1394 112.131C77.8317 112.439 77.4144 112.612 76.9793 112.612H13.7644C13.3293 112.612 12.912 112.439 12.6043 112.131C12.2966 111.824 12.1237 111.406 12.1237 110.971V18.2021C12.1237 17.767 12.2966 17.3497 12.6043 17.0421C12.912 16.7344 13.3293 16.5615 13.7644 16.5615H76.9793C77.4144 16.5615 77.8317 16.7344 78.1394 17.0421C78.4471 17.3497 78.6199 17.767 78.6199 18.2021Z" fill="#F2FBFF"/>
<path d="M68.5781 16.561V17.1985C68.5781 19.397 66.7898 21.1829 64.5937 21.1829H26.1515C23.9555 21.1829 22.1672 19.397 22.1672 17.1985V16.561H68.5781Z" fill="#F2FBFF"/>
<path d="M9.49289 9.17139V120H6.3764C5.94128 120 5.52398 119.827 5.21631 119.52C4.90863 119.212 4.73578 118.795 4.73578 118.359V10.812C4.73578 10.3769 4.90863 9.95959 5.21631 9.65191C5.52398 9.34424 5.94128 9.17139 6.3764 9.17139H9.49289Z" fill="#407093"/>
<path d="M16.8809 16.5615V112.612H13.7644C13.3293 112.612 12.912 112.439 12.6043 112.131C12.2966 111.824 12.1237 111.406 12.1237 110.971V18.2021C12.1237 17.767 12.2966 17.3497 12.6043 17.0421C12.912 16.7344 13.3293 16.5615 13.7644 16.5615H16.8809Z" fill="#DFF6FD"/>
<path d="M46.4039 29.4687L48.4992 33.7142C48.5845 33.8871 48.7107 34.0367 48.8667 34.1501C49.0227 34.2634 49.2039 34.3371 49.3948 34.3648L54.0799 35.0457C55.0554 35.1875 55.4449 36.3863 54.739 37.0742L51.3488 40.3789C51.2107 40.5134 51.1074 40.6796 51.0478 40.8629C50.9882 41.0463 50.9742 41.2414 51.0068 41.4314L51.8072 46.0976C51.9738 47.0691 50.9541 47.81 50.0815 47.3513L45.8909 45.1482C45.7202 45.0584 45.5302 45.0116 45.3374 45.0116C45.1446 45.0116 44.9546 45.0584 44.7839 45.1482L40.5935 47.3513C39.721 47.81 38.7012 47.0691 38.8678 46.0976L39.6682 41.4314C39.7008 41.2414 39.6867 41.0463 39.6272 40.8629C39.5676 40.6796 39.4643 40.5134 39.3263 40.3789L35.936 37.0742C35.2301 36.3861 35.6196 35.1872 36.5951 35.0457L41.2802 34.3648C41.4711 34.3371 41.6523 34.2634 41.8084 34.1501C41.9644 34.0367 42.0905 33.8871 42.1758 33.7142L44.2711 29.4687C44.7073 28.5846 45.9677 28.5846 46.4039 29.4687Z" fill="#FED402"/>
<path d="M68.5781 9.17334V16.5608H22.1672V9.17334H24.5109L26.1422 11.5499H64.1203L66.2344 9.17334H68.5781Z" fill="#407093"/>
<path d="M68.5781 16.561V17.1985C68.5781 19.397 66.7898 21.1829 64.5937 21.1829H26.1515C23.9555 21.1829 22.1672 19.397 22.1672 17.1985V16.561H68.5781Z" fill="#DFF6FD"/>
<path d="M64.5933 18.8396H26.1513C25.7162 18.8396 25.2989 18.6668 24.9912 18.3591C24.6836 18.0514 24.5107 17.6341 24.5107 17.199V9.17236H66.2339V17.199C66.2339 17.6341 66.0611 18.0514 65.7534 18.3591C65.4457 18.6668 65.0284 18.8396 64.5933 18.8396V18.8396Z" fill="#FEE97D"/>
<path d="M31.6472 9.17139V18.8403H26.152C25.7169 18.8403 25.2996 18.6674 24.9919 18.3598C24.6843 18.0521 24.5114 17.6348 24.5114 17.1997V9.17139H31.6472Z" fill="#FEE45A"/>
<path d="M66.2339 59.0925H24.5107C24.0375 59.0925 23.5837 58.9046 23.2492 58.57C22.9146 58.2354 22.7266 57.7816 22.7266 57.3085C22.7266 56.8353 22.9146 56.3815 23.2492 56.047C23.5837 55.7124 24.0375 55.5244 24.5107 55.5244H66.2339C66.707 55.5244 67.1608 55.7124 67.4954 56.047C67.83 56.3815 68.0179 56.8353 68.0179 57.3085C68.0179 57.7816 67.83 58.2354 67.4954 58.57C67.1608 58.9046 66.707 59.0925 66.2339 59.0925V59.0925ZM66.2339 66.481H24.5107C24.0375 66.481 23.5837 66.293 23.2492 65.9584C22.9146 65.6239 22.7266 65.1701 22.7266 64.6969C22.7266 64.2237 22.9146 63.77 23.2492 63.4354C23.5837 63.1008 24.0375 62.9128 24.5107 62.9128H66.2339C66.707 62.9128 67.1608 63.1008 67.4954 63.4354C67.83 63.77 68.0179 64.2237 68.0179 64.6969C68.0179 65.1701 67.83 65.6239 67.4954 65.9584C67.1608 66.293 66.707 66.481 66.2339 66.481V66.481ZM66.2339 73.8694H24.5107C24.0375 73.8694 23.5837 73.6814 23.2492 73.3469C22.9146 73.0123 22.7266 72.5585 22.7266 72.0854C22.7266 71.6122 22.9146 71.1584 23.2492 70.8238C23.5837 70.4893 24.0375 70.3013 24.5107 70.3013H66.2339C66.707 70.3013 67.1608 70.4893 67.4954 70.8238C67.83 71.1584 68.0179 71.6122 68.0179 72.0854C68.0179 72.5585 67.83 73.0123 67.4954 73.3469C67.1608 73.6814 66.707 73.8694 66.2339 73.8694V73.8694ZM66.2339 81.2581H24.5107C24.0375 81.2581 23.5837 81.0701 23.2492 80.7355C22.9146 80.401 22.7266 79.9472 22.7266 79.474C22.7266 79.0009 22.9146 78.5471 23.2492 78.2125C23.5837 77.8779 24.0375 77.69 24.5107 77.69H66.2339C66.707 77.69 67.1608 77.8779 67.4954 78.2125C67.83 78.5471 68.0179 79.0009 68.0179 79.474C68.0179 79.9472 67.83 80.401 67.4954 80.7355C67.1608 81.0701 66.707 81.2581 66.2339 81.2581V81.2581ZM65.8476 103.186H51.9398C51.4667 103.186 51.0129 102.998 50.6783 102.663C50.3437 102.328 50.1558 101.875 50.1558 101.401C50.1558 100.928 50.3437 100.474 50.6783 100.14C51.0129 99.8053 51.4667 99.6174 51.9398 99.6174H65.8476C66.3208 99.6174 66.7746 99.8053 67.1092 100.14C67.4437 100.474 67.6317 100.928 67.6317 101.401C67.6317 101.875 67.4437 102.328 67.1092 102.663C66.7746 102.998 66.3208 103.186 65.8476 103.186Z" fill="#5892BA"/>
<path d="M103.711 93.4382V95.4304L104.414 96.1616V102.058C104.414 103.683 103.491 105.094 102.141 105.792C101.544 106.103 100.882 106.265 100.209 106.263H99.5789C97.2562 106.263 95.3742 104.379 95.3742 102.058V96.1616L96.0773 95.3905V93.4757L95.3742 92.5921V66.253H104.414V92.5921L103.711 93.4382ZM103.577 26.7461H96.2112V18.6772C96.2112 18.2421 96.384 17.8248 96.6917 17.5171C96.9994 17.2095 97.4167 17.0366 97.8518 17.0366H101.936C102.371 17.0366 102.789 17.2095 103.096 17.5171C103.404 17.8248 103.577 18.2421 103.577 18.6772V26.7461Z" fill="#FEE97D"/>
<path d="M102.272 105.696C102.232 105.719 102.187 105.752 102.141 105.792C101.544 106.103 100.882 106.265 100.209 106.263H99.5789C97.2562 106.263 95.3742 104.379 95.3742 102.058V96.1615L96.0773 95.3904V93.4756L95.3742 92.592V66.2529H100.132V101.993C100.132 103.575 100.992 104.96 102.272 105.696Z" fill="#FEE45A"/>
<path d="M95.3742 92.5923H104.414V96.1618H95.3742V92.5923Z" fill="#4A80AA"/>
<path d="M95.3742 92.5923H100.132V96.1618H95.3742V92.5923Z" fill="#407093"/>
<path d="M106.134 26.0435V66.956C106.134 67.863 105.401 68.5966 104.494 68.5966H95.2946C94.3875 68.5966 93.6539 67.863 93.6539 66.956V39.1333L95.9977 37.3825V33.5153L93.6539 31.7669V26.0435C93.6539 25.1364 94.3875 24.4028 95.2946 24.4028H104.494C105.401 24.4028 106.134 25.1364 106.134 26.0435V26.0435Z" fill="#EE7249"/>
<path d="M98.4094 24.4028V68.5966H95.2946C94.3875 68.5966 93.6539 67.863 93.6539 66.956V39.1333L95.9977 37.3825V33.5153L93.6539 31.7669V26.0435C93.6539 25.1364 94.3875 24.4028 95.2946 24.4028H98.4094Z" fill="#E8442D"/>
<path d="M111.84 39.1338H93.6532V31.7681H113.48V37.4931C113.48 37.9283 113.307 38.3456 113 38.6532C112.692 38.9609 112.275 39.1338 111.84 39.1338Z" fill="#FEE97D"/>
<path d="M93.6528 31.7681H98.4099V39.1345H93.6528V31.7681Z" fill="#FEE45A"/>
<path d="M113.264 51.9536C112.354 51.8465 111.696 51.0238 111.696 50.1077V33.6271C111.696 32.7109 112.354 31.8883 113.264 31.7812C113.514 31.7506 113.769 31.7736 114.01 31.8487C114.251 31.9237 114.474 32.0491 114.663 32.2165C114.852 32.3839 115.003 32.5896 115.107 32.8199C115.211 33.0501 115.264 33.2998 115.264 33.5523V50.1827C115.264 51.239 114.346 52.0811 113.264 51.9536V51.9536Z" fill="#4A80AA"/>
</g>
<defs>
<clipPath id="clip0">
<rect width="120" height="120" fill="white"/>
</clipPath>
</defs>
</svg>
