<svg height="512" width="512" xmlns="http://www.w3.org/2000/svg"><path d="M426.215 484.27a7.612 7.612 0 01-7.612-7.612v-23.273a7.612 7.612 0 1115.224 0v23.273a7.612 7.612 0 01-7.612 7.612zM366.97 46.14V505c0 3.86-3.13 7-7 7H27.21c-3.87 0-7-3.14-7-7V46.14c0-3.87 3.13-7 7-7h77.37l6.96 10.14h162.04l9.02-10.14h77.37c3.87 0 7 3.13 7 7z" fill="#4a80aa"/><path d="M209.351 46.747h-31.524a7.612 7.612 0 01-7.612-7.612V23.374C170.215 10.485 180.7 0 193.589 0s23.374 10.485 23.374 23.374v15.762a7.612 7.612 0 01-7.612 7.611zm-23.913-15.223h16.301v-8.151c0-4.494-3.657-8.151-8.151-8.151s-8.151 3.657-8.151 8.151v8.151z" fill="#fee45a"/><path d="M335.445 77.663v395.815a7 7 0 01-7 7H58.728a7 7 0 01-7-7V77.663a7 7 0 017-7h269.717a7 7 0 017 7z" fill="#f2fbff"/><path d="M292.6 70.66v2.72c0 9.38-7.63 17-17 17H111.58c-9.37 0-17-7.62-17-17v-2.72z" fill="#f2fbff"/><path d="M40.503 39.131V512H27.206a7 7 0 01-7-7V46.131a7 7 0 017-7z" fill="#407093"/><path d="M72.025 70.663v409.815H58.728a7 7 0 01-7-7V77.663a7 7 0 017-7z" fill="#dff6fd"/><path d="M197.99 125.733l8.94 18.114a5.073 5.073 0 003.821 2.776l19.99 2.905c4.162.605 5.824 5.72 2.812 8.655l-14.465 14.1a5.072 5.072 0 00-1.459 4.491l3.415 19.909c.711 4.145-3.64 7.306-7.363 5.349l-17.88-9.4a5.076 5.076 0 00-4.723 0l-17.879 9.4c-3.723 1.957-8.074-1.204-7.363-5.349l3.415-19.909a5.073 5.073 0 00-1.459-4.491l-14.465-14.1c-3.012-2.936-1.35-8.051 2.812-8.655l19.99-2.905a5.073 5.073 0 003.821-2.776l8.94-18.114c1.861-3.772 7.239-3.772 9.1 0z" fill="#fed402"/><path d="M292.6 39.14v31.52H94.58V39.14h10l6.96 10.14h162.04l9.02-10.14z" fill="#407093"/><path d="M292.6 70.66v2.72c0 9.38-7.63 17-17 17H111.58c-9.37 0-17-7.62-17-17v-2.72z" fill="#dff6fd"/><path d="M275.598 80.383H111.579a7 7 0 01-7-7V39.136h178.019v34.247a7 7 0 01-7 7z" fill="#fee97d"/><path d="M135.028 39.131v41.254h-23.446a7 7 0 01-7-7V39.131z" fill="#fee45a"/><path d="M282.598 252.13H104.579a7.612 7.612 0 110-15.224h178.019a7.612 7.612 0 110 15.224zM282.598 283.654H104.579a7.612 7.612 0 110-15.224h178.019a7.612 7.612 0 110 15.224zM282.598 315.178H104.579a7.612 7.612 0 110-15.224h178.019a7.612 7.612 0 110 15.224zM282.598 346.703H104.579a7.612 7.612 0 110-15.224h178.019a7.612 7.612 0 110 15.224zM280.95 440.26h-59.34a7.612 7.612 0 110-15.224h59.34a7.612 7.612 0 110 15.224z" fill="#5892ba"/><path d="M442.5 398.67v8.5l3 3.12v25.16c0 6.93-3.94 12.95-9.7 15.93a17.734 17.734 0 01-8.24 2.01h-2.69c-9.91 0-17.94-8.04-17.94-17.94v-25.16l3-3.29v-8.17l-3-3.77V282.68h38.57v112.38zM441.928 114.117h-31.427V79.69a7 7 0 017-7h17.427a7 7 0 017 7z" fill="#fee97d"/><path d="M436.36 450.97c-.17.1-.36.24-.56.41a17.734 17.734 0 01-8.24 2.01h-2.69c-9.91 0-17.94-8.04-17.94-17.94v-25.16l3-3.29v-8.17l-3-3.77V282.68h20.3v152.49c0 6.75 3.67 12.66 9.13 15.8z" fill="#fee45a"/><path d="M406.93 395.06h38.57v15.23h-38.57z" fill="#4a80aa"/><path d="M406.93 395.06h20.3v15.23h-20.3z" fill="#407093"/><path d="M452.84 111.12v174.56c0 3.87-3.13 7-7 7h-39.25c-3.87 0-7-3.13-7-7V166.97l10-7.47V143l-10-7.46v-24.42c0-3.87 3.13-7 7-7h39.25c3.87 0 7 3.13 7 7z" fill="#ee7249"/><path d="M419.88 104.12v188.56h-13.29c-3.87 0-7-3.13-7-7V166.97l10-7.47V143l-10-7.46v-24.42c0-3.87 3.13-7 7-7z" fill="#e8442d"/><path d="M477.182 166.971h-77.595v-31.427h84.595v24.427a7 7 0 01-7 7z" fill="#fee97d"/><path d="M399.585 135.544h20.297v31.43h-20.297z" fill="#fee45a"/><g><path d="M483.259 221.668c-3.882-.457-6.688-3.967-6.688-7.876v-70.317c0-3.909 2.806-7.419 6.688-7.876a7.614 7.614 0 018.535 7.557v70.956c0 4.507-3.919 8.1-8.535 7.556z" fill="#4a80aa"/></g></svg>