<svg height="512" width="512" xmlns="http://www.w3.org/2000/svg"><circle cx="256.001" cy="256.001" fill="#ffd064" r="87.201"/><path d="M256.001 350.928c-52.343 0-94.928-42.585-94.928-94.928s42.585-94.927 94.928-94.927 94.928 42.584 94.928 94.927-42.585 94.928-94.928 94.928zm0-174.402c-43.823 0-79.475 35.652-79.475 79.474s35.652 79.475 79.475 79.475 79.475-35.652 79.475-79.475-35.652-79.474-79.475-79.474z" fill="#ffc250"/><g fill="#e49542"><path d="M253.58 311.654c-12.831 0-20.231-.943-32.948-7.793a7.725 7.725 0 01-3.137-10.466 7.723 7.723 0 0110.467-3.137c10.32 5.56 15.111 6.013 27.254 5.939 14.612-.08 23.452-8.671 24.633-17.115 1.039-7.435-4.023-13.347-13.888-16.219-17.786-5.178-27.993-9.198-35.233-13.875-8.008-5.172-11.976-14.422-10.356-24.139 1.912-11.474 11.085-20.856 23.366-23.903 23.76-5.895 39.58 5.847 40.242 6.349a7.727 7.727 0 01-9.294 12.345c-.559-.404-11.004-7.723-27.228-3.696-7.642 1.896-11.129 7.155-11.844 11.446-.288 1.726-.523 6.021 3.498 8.618 7.312 4.723 19.859 8.726 31.169 12.018 17.227 5.015 26.99 18.045 24.872 33.196-2.101 15.024-16.464 30.3-39.852 30.428-.585.002-1.158.004-1.721.004z"/><path d="M255.26 325.75a7.725 7.725 0 01-7.726-7.726v-14.101a7.726 7.726 0 1115.452 0v14.101a7.727 7.727 0 01-7.726 7.726zM255.26 214.793a7.725 7.725 0 01-7.726-7.726v-13.089a7.726 7.726 0 1115.452 0v13.089a7.726 7.726 0 01-7.726 7.726z"/></g><g><path d="M365.724 394.747l-106.276.169c-12.585-.226-23.357 8.978-25.099 21.444-1.677 12.002 5.534 23.467 17.078 27.155l110.36-13.501z" fill="#eaac9d"/><path d="M333.948 415.855l-106.276.169c-12.585-.226-23.357 8.978-25.099 21.444-1.677 12.002 5.534 23.467 17.078 27.155l110.36-13.501z" fill="#ffcbbe"/><path d="M187.003 475.544a24.824 24.824 0 0013.933 11.186l24.155 7.714 49.573 15.838a36.202 36.202 0 0025.131-1.146l146.179-61.887 19.239-86.978c19.693-.186 0 .056 0 0l-19.934-46.84-46.311-5.949a181.052 181.052 0 00-67.183 3.986 181.555 181.555 0 00-18.779 5.822l-6.106 2.259c-12.614 4.68-19.227 18.542-14.92 31.285a24.852 24.852 0 002.067 4.554 24.883 24.883 0 0019.148 12.245l50.047 4.742-87.79 66.947-66.493-1.19c-12.582-.225-23.354 8.98-25.094 21.445a24.832 24.832 0 003.138 15.967z" fill="#ffddce"/><path d="M225.091 494.444l49.573 15.838a36.202 36.202 0 0025.131-1.146l146.179-61.887-.419-80.686c-.626 93.522-193.359 136.542-220.464 127.881zM445.52 360.458c-.008 1.332 0 2.679.026 4.056z" fill="#ffcbbe"/><path d="M445.973 447.248l60.303 2.509-.325-63.637-.367-70.179-60.303-2.51.394 76.613z" fill="#db5c6e"/><path d="M445.973 447.248l60.303 2.51-.325-63.637c-30.021 20.78-60.276 3.924-60.276 3.924z" fill="#d64553"/><g><path d="M146.276 117.253l106.276-.169c12.585.226 23.357-8.978 25.099-21.444 1.677-12.002-5.534-23.467-17.078-27.155l-110.36 13.501z" fill="#eaac9d"/><path d="M178.052 96.144l106.276-.169c12.585.226 23.357-8.978 25.099-21.444 1.677-12.002-5.534-23.467-17.078-27.155l-110.36 13.501z" fill="#ffcbbe"/><path d="M324.997 36.456a24.824 24.824 0 00-13.933-11.186l-24.155-7.714-49.573-15.838a36.202 36.202 0 00-25.131 1.146L66.026 64.751l.419 80.686c-.009.589-.003 1.177.007 1.771 0 .096.006.189.002.279l.026 4.056c-.002.065-.004.13-.004.186l.245 46.84 46.311 5.949a181.052 181.052 0 0067.183-3.986 181.555 181.555 0 0018.779-5.822l6.106-2.259c12.614-4.68 19.227-18.542 14.92-31.285a24.852 24.852 0 00-2.067-4.554 24.883 24.883 0 00-19.148-12.245l-50.047-4.742 87.79-66.947 66.493 1.19c12.582.225 23.354-8.98 25.094-21.445a24.832 24.832 0 00-3.138-15.967z" fill="#ffddce"/><path d="M286.909 17.556L237.336 1.718a36.202 36.202 0 00-25.131 1.146L66.026 64.751l.419 80.686C67.071 51.915 259.804 8.895 286.909 17.556zM66.48 151.542c.008-1.332 0-2.679-.026-4.056z" fill="#ffcbbe"/><path d="M66.027 64.752L5.724 62.243l.325 63.637.367 70.179 60.303 2.51-.394-76.613z" fill="#80b4fb"/><path d="M66.027 64.752l-60.303-2.51.325 63.637c30.021-20.78 60.276-3.924 60.276-3.924z" fill="#61a2f9"/></g></g></svg>