<?xml version="1.0" encoding="iso-8859-1"?>
<!-- Generator: Adobe Illustrator 19.0.0, SVG Export Plug-In . SVG Version: 6.00 Build 0)  -->
<svg version="1.1" id="Capa_1" xmlns="http://www.w3.org/2000/svg" xmlns:xlink="http://www.w3.org/1999/xlink" x="0px" y="0px"
	 viewBox="0 0 512 512" style="enable-background:new 0 0 512 512;" xml:space="preserve">
<path style="fill:#FEA832;" d="M422.026,166c0,45.599-18.6,86.999-48.3,116.7c-29.7,29.7-71.1,48.3-116.7,48.3
	c-91.199,0-165-73.801-165-165c0-45.601,18.6-87.001,48.3-116.7S211.426,0,257.026,0s87.001,18.6,116.7,48.3
	S422.026,120.399,422.026,166z"/>
<path style="fill:#FE9923;" d="M422.026,166c0,45.599-18.6,86.999-48.3,116.7c-29.7,29.7-71.1,48.3-116.7,48.3V0
	c45.601,0,87.001,18.6,116.7,48.3S422.026,120.399,422.026,166z"/>
<path style="fill:#FEDB41;" d="M257.026,301c-74.443,0-135-60.557-135-135c0-36.094,14.033-70.005,39.521-95.493
	C187.021,45.033,220.932,30,257.026,30s70.005,14.033,95.493,39.521c25.474,25.474,39.507,60.385,39.507,96.479
	s-14.033,70.005-39.521,95.493C327.031,286.967,293.12,301,257.026,301z"/>
<path style="fill:#FFCC33;" d="M352.505,261.493c25.488-25.488,39.521-59.399,39.521-95.493s-14.033-71.005-39.507-96.479
	C327.031,44.033,293.12,30,257.026,30v271C293.12,301,327.031,286.967,352.505,261.493z"/>
<path style="fill:#FEA832;" d="M302.026,196c0,17.999-10.8,35.4-30,42.299V256c0,8.399-6.599,15-15,15s-15-6.601-15-15v-17.701
	c-7.8-2.699-15.3-6.899-22.2-13.5c-6-5.7-6-15.298-0.3-21.299s15.3-6,21.301-0.3c5.099,5.099,10.8,7.8,16.199,7.8
	c2.1,0,3.9-0.3,5.7-1.201c5.7-2.399,9.3-7.798,9.3-13.799c0-8.401-6.599-15-15-15c-24.901,0-45-20.101-45-45
	c0-18.9,12.001-35.7,29.7-42.301h0.3V76c0-8.401,6.599-16,15-16s15,7.599,15,16v17.399c9.901,3.301,19.2,9.901,27.299,19.801
	c5.402,6.301,4.501,15.601-1.8,21c-6.299,5.4-15.599,4.499-20.999-1.8c-6.301-7.5-13.2-11.4-19.501-11.4c-1.8,0-3.3,0.3-5.1,0.899
	c-6,2.1-9.901,7.8-9.901,14.101c0,8.399,6.599,15,15,15C281.927,151,302.026,171.099,302.026,196z"/>
<g>
	<path style="fill:#FE9923;" d="M302.026,196c0,17.999-10.8,35.4-30,42.299V256c0,8.399-6.599,15-15,15v-60c2.1,0,3.9-0.3,5.7-1.201
		c5.7-2.399,9.3-7.798,9.3-13.799c0-8.401-6.599-15-15-15v-30C281.927,151,302.026,171.099,302.026,196z"/>
	<path style="fill:#FE9923;" d="M276.527,132.4c-6.301-7.5-13.2-11.4-19.501-11.4V60c8.401,0,15,7.599,15,16v17.399
		c9.901,3.301,19.2,9.901,27.299,19.801c5.402,6.301,4.501,15.601-1.8,21C291.227,139.6,281.927,138.699,276.527,132.4z"/>
</g>
<path style="fill:#FEDBAB;" d="M499.727,276.7c-12.301-9-29.401-7.2-39.6,3.9l-81,100.8c-5.7,6-16.5,9.6-22.2,9.6H227.026
	c-8.401,0-15-6.599-15-15s6.599-15,15-15c67.2,0,45.3,0,120,0c16.5,0,30-13.5,30-30s-13.5-30-30-30c-70.446,0-3.25,0-78.6,0
	c-7.476,0-11.204-4.741-17.1-9.901c-24.006-21.603-59.278-31.625-95.745-21.891c-28.176,7.521-41.752,20.808-63.555,39.996V482h255
	c28.2,0,55.201-14.5,72.001-37l86.999-126C515.926,305.799,513.225,286.601,499.727,276.7z"/>
<g>
	<path style="fill:#FEC478;" d="M377.026,331c0-16.5-13.5-30-30-30c-70.446,0-3.25,0-78.6,0c-4.834,0-8.101-2.073-11.4-4.869V361
		c32.329,0,29.557,0,90,0C363.526,361,377.026,347.5,377.026,331z"/>
	<path style="fill:#FEC478;" d="M460.127,280.6l-81,100.8c-5.7,6-16.5,9.6-22.2,9.6h-99.901v91h90c28.2,0,55.201-14.5,72.001-37
		l86.999-126c9.901-13.2,7.2-32.399-6.299-42.299C487.426,267.7,470.326,269.5,460.127,280.6z"/>
</g>
<path style="fill:#AA3DC8;" d="M77.026,512h-62c-8.291,0-15-6.709-15-15V286c0-8.291,6.709-15,15-15h62c24.814,0,45,20.186,45,45
	v151C122.026,491.814,101.841,512,77.026,512z"/>
<g>
</g>
<g>
</g>
<g>
</g>
<g>
</g>
<g>
</g>
<g>
</g>
<g>
</g>
<g>
</g>
<g>
</g>
<g>
</g>
<g>
</g>
<g>
</g>
<g>
</g>
<g>
</g>
<g>
</g>
</svg>
