<svg width="120" height="120" viewBox="0 0 120 120" fill="none"
  xmlns="http://www.w3.org/2000/svg">
  <path d="M98.9124 38.9062C98.9124 49.5935 94.553 59.2966 87.592 66.2578C80.6311 73.2188 70.928 77.5781 60.2405 77.5781C38.8657 77.5781 21.5686 60.281 21.5686 38.9062C21.5686 28.2185 25.928 18.5154 32.8889 11.5547C39.8499 4.59398 49.553 0 60.2405 0C70.928 0 80.6313 4.35937 87.592 11.3203C94.5527 18.2812 98.9124 28.2185 98.9124 38.9062Z" fill="#FEA832"/>
  <path d="M98.9124 38.9062C98.9124 49.5935 94.553 59.2966 87.592 66.2578C80.6311 73.2188 70.928 77.5781 60.2405 77.5781V0C70.9282 0 80.6313 4.35937 87.592 11.3203C94.5527 18.2812 98.9124 28.2185 98.9124 38.9062Z" fill="#FE9923"/>
  <path d="M60.2405 70.5469C42.7929 70.5469 28.5999 56.3538 28.5999 38.9062C28.5999 30.4467 31.8888 22.4988 37.8626 16.5251C43.8331 10.5546 51.7809 7.03125 60.2405 7.03125C68.7 7.03125 76.6479 10.3202 82.6217 16.294C88.5921 22.2645 91.8811 30.4467 91.8811 38.9062C91.8811 47.3658 88.5921 55.3137 82.6184 61.2874C76.6479 67.2579 68.7 70.5469 60.2405 70.5469Z" fill="#FEDB41"/>
  <path d="M82.6184 61.2874C88.5921 55.3137 91.8811 47.3658 91.8811 38.9062C91.8811 30.4467 88.5921 22.2645 82.6217 16.294C76.6479 10.3202 68.7 7.03125 60.2405 7.03125V70.5469C68.7 70.5469 76.6479 67.2579 82.6184 61.2874Z" fill="#FFCC33"/>
  <path d="M70.7874 45.9375C70.7874 50.156 68.2561 54.2344 63.7561 55.8513V60C63.7561 61.9685 62.2095 63.5156 60.2405 63.5156C58.2715 63.5156 56.7249 61.9685 56.7249 60V55.8513C54.8967 55.2187 53.1389 54.2344 51.5217 52.6873C50.1155 51.3513 50.1155 49.1018 51.4514 47.6953C52.7874 46.2888 55.0374 46.2891 56.4438 47.625C57.6389 48.8201 58.9751 49.4531 60.2405 49.4531C60.7327 49.4531 61.1545 49.3828 61.5764 49.1716C62.9124 48.6094 63.7561 47.344 63.7561 45.9375C63.7561 43.9685 62.2095 42.4219 60.2405 42.4219C54.4043 42.4219 49.6936 37.7107 49.6936 31.875C49.6936 27.4453 52.5063 23.5078 56.6545 21.9607H56.7249V17.8125C56.7249 15.8435 58.2715 14.0625 60.2405 14.0625C62.2095 14.0625 63.7561 15.8435 63.7561 17.8125V21.8904C66.0767 22.6641 68.2561 24.2109 70.1543 26.5312C71.4204 28.008 71.2092 30.1877 69.7324 31.4531C68.2561 32.7187 66.0764 32.5076 64.8108 31.0312C63.334 29.2734 61.717 28.3594 60.2402 28.3594C59.8184 28.3594 59.4668 28.4297 59.0449 28.5701C57.6387 29.0623 56.7244 30.3982 56.7244 31.875C56.7244 33.8435 58.271 35.3906 60.24 35.3906C66.0767 35.3906 70.7874 40.1013 70.7874 45.9375V45.9375Z" fill="#FEA832"/>
  <path d="M70.7874 45.9375C70.7874 50.156 68.2561 54.2344 63.7561 55.8513V60C63.7561 61.9685 62.2095 63.5156 60.2405 63.5156V49.4531C60.7327 49.4531 61.1545 49.3828 61.5764 49.1716C62.9124 48.6094 63.7561 47.344 63.7561 45.9375C63.7561 43.9685 62.2095 42.4219 60.2405 42.4219V35.3906C66.0767 35.3906 70.7874 40.1013 70.7874 45.9375ZM64.811 31.0312C63.3342 29.2734 61.7173 28.3594 60.2405 28.3594V14.0625C62.2095 14.0625 63.7561 15.8435 63.7561 17.8125V21.8904C66.0767 22.6641 68.2561 24.2109 70.1543 26.5312C71.4204 28.008 71.2092 30.1877 69.7324 31.4531C68.2563 32.7187 66.0767 32.5076 64.811 31.0312V31.0312Z" fill="#FE9923"/>
  <path d="M117.124 64.8513C114.24 62.7419 110.233 63.1638 107.842 65.7653L88.8579 89.3903C87.522 90.7966 84.9907 91.6403 83.6548 91.6403H53.2092C51.2402 91.6403 49.6936 90.0937 49.6936 88.1247C49.6936 86.1557 51.2402 84.6091 53.2092 84.6091H81.3342C85.2014 84.6091 88.3655 81.445 88.3655 77.5778C88.3655 73.7107 85.2014 70.5466 81.3342 70.5466H62.9124C61.1602 70.5466 60.2864 69.4354 58.9045 68.226C53.2781 63.1628 45.0113 60.8139 36.4643 63.0953C29.8606 64.8581 26.6787 67.9722 21.5686 72.4694V112.968H81.3342C87.9436 112.968 94.272 109.57 98.2095 104.297L118.6 74.7653C120.92 71.6714 120.287 67.1718 117.124 64.8513V64.8513Z" fill="#FEDBAB"/>
  <path d="M88.3655 77.5777C88.3655 73.7105 85.2014 70.5464 81.3342 70.5464H62.9124C61.7794 70.5464 61.0137 70.0606 60.2405 69.4053V84.6089H81.3342C85.2014 84.6089 88.3655 81.4449 88.3655 77.5777V77.5777Z" fill="#FEC478"/>
  <path d="M107.842 65.7653L88.8579 89.3903C87.522 90.7966 84.9907 91.6403 83.6548 91.6403H60.2405V112.968H81.3342C87.9436 112.968 94.272 109.57 98.2095 104.297L118.6 74.7653C120.92 71.6716 120.287 67.1718 117.124 64.8515C114.24 62.7419 110.233 63.1638 107.842 65.7653V65.7653Z" fill="#FEC478"/>
  <path d="M18.053 120H3.52173C1.57853 120 0.00610352 118.428 0.00610352 116.484V67.0312C0.00610352 65.088 1.57853 63.5156 3.52173 63.5156H18.053C23.8688 63.5156 28.5999 68.2467 28.5999 74.0625V109.453C28.5999 115.269 23.869 120 18.053 120Z" fill="#AA3DC8"/>
</svg>
