<svg xmlns="http://www.w3.org/2000/svg" viewBox="0 0 512 512"><path d="M422.026 166c0 45.599-18.6 86.999-48.3 116.7-29.7 29.7-71.1 48.3-116.7 48.3-91.199 0-165-73.801-165-165 0-45.601 18.6-87.001 48.3-116.7S211.426 0 257.026 0s87.001 18.6 116.7 48.3 48.3 72.099 48.3 117.7z" fill="#fea832"/><path d="M422.026 166c0 45.599-18.6 86.999-48.3 116.7-29.7 29.7-71.1 48.3-116.7 48.3V0c45.601 0 87.001 18.6 116.7 48.3s48.3 72.099 48.3 117.7z" fill="#fe9923"/><path d="M257.026 301c-74.443 0-135-60.557-135-135 0-36.094 14.033-70.005 39.521-95.493C187.021 45.033 220.932 30 257.026 30s70.005 14.033 95.493 39.521c25.474 25.474 39.507 60.385 39.507 96.479s-14.033 70.005-39.521 95.493C327.031 286.967 293.12 301 257.026 301z" fill="#fedb41"/><path d="M352.505 261.493c25.488-25.488 39.521-59.399 39.521-95.493s-14.033-71.005-39.507-96.479C327.031 44.033 293.12 30 257.026 30v271c36.094 0 70.005-14.033 95.479-39.507z" fill="#fc3"/><path d="M302.026 196c0 17.999-10.8 35.4-30 42.299V256c0 8.399-6.599 15-15 15s-15-6.601-15-15v-17.701c-7.8-2.699-15.3-6.899-22.2-13.5-6-5.7-6-15.298-.3-21.299s15.3-6 21.301-.3c5.099 5.099 10.8 7.8 16.199 7.8 2.1 0 3.9-.3 5.7-1.201 5.7-2.399 9.3-7.798 9.3-13.799 0-8.401-6.599-15-15-15-24.901 0-45-20.101-45-45 0-18.9 12.001-35.7 29.7-42.301h.3V76c0-8.401 6.599-16 15-16s15 7.599 15 16v17.399c9.901 3.301 19.2 9.901 27.299 19.801 5.402 6.301 4.501 15.601-1.8 21-6.299 5.4-15.599 4.499-20.999-1.8-6.301-7.5-13.2-11.4-19.501-11.4-1.8 0-3.3.3-5.1.899-6 2.1-9.901 7.8-9.901 14.101 0 8.399 6.599 15 15 15 24.903 0 45.002 20.099 45.002 45z" fill="#fea832"/><g fill="#fe9923"><path d="M302.026 196c0 17.999-10.8 35.4-30 42.299V256c0 8.399-6.599 15-15 15v-60c2.1 0 3.9-.3 5.7-1.201 5.7-2.399 9.3-7.798 9.3-13.799 0-8.401-6.599-15-15-15v-30c24.901 0 45 20.099 45 45zM276.527 132.4c-6.301-7.5-13.2-11.4-19.501-11.4V60c8.401 0 15 7.599 15 16v17.399c9.901 3.301 19.2 9.901 27.299 19.801 5.402 6.301 4.501 15.601-1.8 21-6.298 5.4-15.598 4.499-20.998-1.8z"/></g><path d="M499.727 276.7c-12.301-9-29.401-7.2-39.6 3.9l-81 100.8c-5.7 6-16.5 9.6-22.2 9.6H227.026c-8.401 0-15-6.599-15-15s6.599-15 15-15h120c16.5 0 30-13.5 30-30s-13.5-30-30-30h-78.6c-7.476 0-11.204-4.741-17.1-9.901-24.006-21.603-59.278-31.625-95.745-21.891-28.176 7.521-41.752 20.808-63.555 39.996V482h255c28.2 0 55.201-14.5 72.001-37l86.999-126c9.9-13.201 7.199-32.399-6.299-42.3z" fill="#fedbab"/><g fill="#fec478"><path d="M377.026 331c0-16.5-13.5-30-30-30h-78.6c-4.834 0-8.101-2.073-11.4-4.869V361h90c16.5 0 30-13.5 30-30z"/><path d="M460.127 280.6l-81 100.8c-5.7 6-16.5 9.6-22.2 9.6h-99.901v91h90c28.2 0 55.201-14.5 72.001-37l86.999-126c9.901-13.2 7.2-32.399-6.299-42.299-12.301-9.001-29.401-7.201-39.6 3.899z"/></g><path d="M77.026 512h-62c-8.291 0-15-6.709-15-15V286c0-8.291 6.709-15 15-15h62c24.814 0 45 20.186 45 45v151c0 24.814-20.185 45-45 45z" fill="#aa3dc8"/></svg>