<svg xmlns="http://www.w3.org/2000/svg">
  <symbol id="arrow-downXL">
    <path d="M37.5458 87.0204C38.9964 86.8768 40.3698 86.2921 41.4728 85.3436L71.1231 59.9288C72.6178 58.7321 73.5609 56.9781 73.7376 55.0754C73.9139 53.1724 73.3129 51.2806 72.0721 49.8246C70.8255 48.374 69.0496 47.4862 67.1411 47.3704C65.233 47.2546 63.3577 47.9165 61.9457 49.2068L36.8839 70.6953L11.8221 49.2068C10.4102 47.9165 8.53503 47.2546 6.62665 47.3704C4.71827 47.4862 2.94235 48.374 1.6959 49.8246C0.454942 51.2806 -0.146246 53.1724 0.0302451 55.0754C0.206737 56.9781 1.14986 58.7321 2.64458 59.9288L32.2952 85.3436C33.7456 86.5901 35.643 87.1912 37.5458 87.0204Z" fill="white"/>
    <path d="M37.5458 39.6631C38.9964 39.5195 40.3698 38.9349 41.4728 37.9863L71.1231 12.5716C72.6178 11.3747 73.5609 9.62093 73.7376 7.71805C73.9139 5.8152 73.3129 3.9235 72.0721 2.46736C70.8255 1.01688 69.0496 0.128919 67.1411 0.0129998C65.233 -0.102823 63.3577 0.559022 61.9457 1.84964L36.8839 23.3378L11.8221 1.84964C10.4102 0.559051 8.53503 -0.102779 6.62665 0.0129998C4.71827 0.128822 2.94235 1.0168 1.6959 2.46736C0.454942 3.92336 -0.146246 5.8152 0.0302451 7.71805C0.206737 9.62093 1.14986 11.3747 2.64458 12.5716L32.2952 37.9863C33.7456 39.2328 35.643 39.8339 37.5458 39.6631Z" fill="white"/>
  </symbol>

  <symbol id="feedback-XL">
    <g clip-path="url(#clip0)">
      <path d="M99.8941 113.501C99.421 113.501 98.9672 113.313 98.6326 112.978C98.298 112.644 98.1101 112.19 98.1101 111.717V106.262C98.1101 106.028 98.1562 105.796 98.2459 105.579C98.3355 105.363 98.467 105.166 98.6326 105C98.7983 104.835 98.995 104.703 99.2114 104.614C99.4279 104.524 99.6599 104.478 99.8941 104.478C100.128 104.478 100.36 104.524 100.577 104.614C100.793 104.703 100.99 104.835 101.156 105C101.321 105.166 101.453 105.363 101.542 105.579C101.632 105.796 101.678 106.028 101.678 106.262V111.717C101.678 112.19 101.49 112.644 101.156 112.978C100.821 113.313 100.367 113.501 99.8941 113.501V113.501ZM86.0086 10.814V118.359C86.0086 119.264 85.275 120 84.368 120H6.37735C5.47032 120 4.73672 119.264 4.73672 118.359V10.814C4.73672 9.90693 5.47032 9.17334 6.37735 9.17334H24.5109L26.1422 11.5499H64.1203L66.2344 9.17334H84.368C85.275 9.17334 86.0086 9.90693 86.0086 10.814V10.814Z" fill="#4A80AA"/>
      <path d="M49.0666 10.9563H41.6782C41.205 10.9563 40.7513 10.7684 40.4167 10.4338C40.0821 10.0992 39.8941 9.64543 39.8941 9.17227V5.47828C39.8941 2.45742 42.3516 0 45.3724 0C48.3933 0 50.8507 2.45742 50.8507 5.47828V9.1725C50.8506 9.64562 50.6626 10.0993 50.3281 10.4339C49.9935 10.7684 49.5398 10.9563 49.0666 10.9563V10.9563ZM43.462 7.38844H47.2826V5.47805C47.2826 4.42477 46.4255 3.56766 45.3722 3.56766C44.3189 3.56766 43.4618 4.42477 43.4618 5.47805V7.38844H43.462Z" fill="#FEE45A"/>
      <path d="M78.6199 18.2021V110.971C78.6199 111.406 78.4471 111.824 78.1394 112.131C77.8317 112.439 77.4144 112.612 76.9793 112.612H13.7644C13.3293 112.612 12.912 112.439 12.6043 112.131C12.2966 111.824 12.1237 111.406 12.1237 110.971V18.2021C12.1237 17.767 12.2966 17.3497 12.6043 17.0421C12.912 16.7344 13.3293 16.5615 13.7644 16.5615H76.9793C77.4144 16.5615 77.8317 16.7344 78.1394 17.0421C78.4471 17.3497 78.6199 17.767 78.6199 18.2021Z" fill="#F2FBFF"/>
      <path d="M68.5781 16.561V17.1985C68.5781 19.397 66.7898 21.1829 64.5937 21.1829H26.1515C23.9555 21.1829 22.1672 19.397 22.1672 17.1985V16.561H68.5781Z" fill="#F2FBFF"/>
      <path d="M9.49289 9.17139V120H6.3764C5.94128 120 5.52398 119.827 5.21631 119.52C4.90863 119.212 4.73578 118.795 4.73578 118.359V10.812C4.73578 10.3769 4.90863 9.95959 5.21631 9.65191C5.52398 9.34424 5.94128 9.17139 6.3764 9.17139H9.49289Z" fill="#407093"/>
      <path d="M16.8809 16.5615V112.612H13.7644C13.3293 112.612 12.912 112.439 12.6043 112.131C12.2966 111.824 12.1237 111.406 12.1237 110.971V18.2021C12.1237 17.767 12.2966 17.3497 12.6043 17.0421C12.912 16.7344 13.3293 16.5615 13.7644 16.5615H16.8809Z" fill="#DFF6FD"/>
      <path d="M46.4039 29.4687L48.4992 33.7142C48.5845 33.8871 48.7107 34.0367 48.8667 34.1501C49.0227 34.2634 49.2039 34.3371 49.3948 34.3648L54.0799 35.0457C55.0554 35.1875 55.4449 36.3863 54.739 37.0742L51.3488 40.3789C51.2107 40.5134 51.1074 40.6796 51.0478 40.8629C50.9882 41.0463 50.9742 41.2414 51.0068 41.4314L51.8072 46.0976C51.9738 47.0691 50.9541 47.81 50.0815 47.3513L45.8909 45.1482C45.7202 45.0584 45.5302 45.0116 45.3374 45.0116C45.1446 45.0116 44.9546 45.0584 44.7839 45.1482L40.5935 47.3513C39.721 47.81 38.7012 47.0691 38.8678 46.0976L39.6682 41.4314C39.7008 41.2414 39.6867 41.0463 39.6272 40.8629C39.5676 40.6796 39.4643 40.5134 39.3263 40.3789L35.936 37.0742C35.2301 36.3861 35.6196 35.1872 36.5951 35.0457L41.2802 34.3648C41.4711 34.3371 41.6523 34.2634 41.8084 34.1501C41.9644 34.0367 42.0905 33.8871 42.1758 33.7142L44.2711 29.4687C44.7073 28.5846 45.9677 28.5846 46.4039 29.4687Z" fill="#FED402"/>
      <path d="M68.5781 9.17334V16.5608H22.1672V9.17334H24.5109L26.1422 11.5499H64.1203L66.2344 9.17334H68.5781Z" fill="#407093"/>
      <path d="M68.5781 16.561V17.1985C68.5781 19.397 66.7898 21.1829 64.5937 21.1829H26.1515C23.9555 21.1829 22.1672 19.397 22.1672 17.1985V16.561H68.5781Z" fill="#DFF6FD"/>
      <path d="M64.5933 18.8396H26.1513C25.7162 18.8396 25.2989 18.6668 24.9912 18.3591C24.6836 18.0514 24.5107 17.6341 24.5107 17.199V9.17236H66.2339V17.199C66.2339 17.6341 66.0611 18.0514 65.7534 18.3591C65.4457 18.6668 65.0284 18.8396 64.5933 18.8396V18.8396Z" fill="#FEE97D"/>
      <path d="M31.6472 9.17139V18.8403H26.152C25.7169 18.8403 25.2996 18.6674 24.9919 18.3598C24.6843 18.0521 24.5114 17.6348 24.5114 17.1997V9.17139H31.6472Z" fill="#FEE45A"/>
      <path d="M66.2339 59.0925H24.5107C24.0375 59.0925 23.5837 58.9046 23.2492 58.57C22.9146 58.2354 22.7266 57.7816 22.7266 57.3085C22.7266 56.8353 22.9146 56.3815 23.2492 56.047C23.5837 55.7124 24.0375 55.5244 24.5107 55.5244H66.2339C66.707 55.5244 67.1608 55.7124 67.4954 56.047C67.83 56.3815 68.0179 56.8353 68.0179 57.3085C68.0179 57.7816 67.83 58.2354 67.4954 58.57C67.1608 58.9046 66.707 59.0925 66.2339 59.0925V59.0925ZM66.2339 66.481H24.5107C24.0375 66.481 23.5837 66.293 23.2492 65.9584C22.9146 65.6239 22.7266 65.1701 22.7266 64.6969C22.7266 64.2237 22.9146 63.77 23.2492 63.4354C23.5837 63.1008 24.0375 62.9128 24.5107 62.9128H66.2339C66.707 62.9128 67.1608 63.1008 67.4954 63.4354C67.83 63.77 68.0179 64.2237 68.0179 64.6969C68.0179 65.1701 67.83 65.6239 67.4954 65.9584C67.1608 66.293 66.707 66.481 66.2339 66.481V66.481ZM66.2339 73.8694H24.5107C24.0375 73.8694 23.5837 73.6814 23.2492 73.3469C22.9146 73.0123 22.7266 72.5585 22.7266 72.0854C22.7266 71.6122 22.9146 71.1584 23.2492 70.8238C23.5837 70.4893 24.0375 70.3013 24.5107 70.3013H66.2339C66.707 70.3013 67.1608 70.4893 67.4954 70.8238C67.83 71.1584 68.0179 71.6122 68.0179 72.0854C68.0179 72.5585 67.83 73.0123 67.4954 73.3469C67.1608 73.6814 66.707 73.8694 66.2339 73.8694V73.8694ZM66.2339 81.2581H24.5107C24.0375 81.2581 23.5837 81.0701 23.2492 80.7355C22.9146 80.401 22.7266 79.9472 22.7266 79.474C22.7266 79.0009 22.9146 78.5471 23.2492 78.2125C23.5837 77.8779 24.0375 77.69 24.5107 77.69H66.2339C66.707 77.69 67.1608 77.8779 67.4954 78.2125C67.83 78.5471 68.0179 79.0009 68.0179 79.474C68.0179 79.9472 67.83 80.401 67.4954 80.7355C67.1608 81.0701 66.707 81.2581 66.2339 81.2581V81.2581ZM65.8476 103.186H51.9398C51.4667 103.186 51.0129 102.998 50.6783 102.663C50.3437 102.328 50.1558 101.875 50.1558 101.401C50.1558 100.928 50.3437 100.474 50.6783 100.14C51.0129 99.8053 51.4667 99.6174 51.9398 99.6174H65.8476C66.3208 99.6174 66.7746 99.8053 67.1092 100.14C67.4437 100.474 67.6317 100.928 67.6317 101.401C67.6317 101.875 67.4437 102.328 67.1092 102.663C66.7746 102.998 66.3208 103.186 65.8476 103.186Z" fill="#5892BA"/>
      <path d="M103.711 93.4382V95.4304L104.414 96.1616V102.058C104.414 103.683 103.491 105.094 102.141 105.792C101.544 106.103 100.882 106.265 100.209 106.263H99.5789C97.2562 106.263 95.3742 104.379 95.3742 102.058V96.1616L96.0773 95.3905V93.4757L95.3742 92.5921V66.253H104.414V92.5921L103.711 93.4382ZM103.577 26.7461H96.2112V18.6772C96.2112 18.2421 96.384 17.8248 96.6917 17.5171C96.9994 17.2095 97.4167 17.0366 97.8518 17.0366H101.936C102.371 17.0366 102.789 17.2095 103.096 17.5171C103.404 17.8248 103.577 18.2421 103.577 18.6772V26.7461Z" fill="#FEE97D"/>
      <path d="M102.272 105.696C102.232 105.719 102.187 105.752 102.141 105.792C101.544 106.103 100.882 106.265 100.209 106.263H99.5789C97.2562 106.263 95.3742 104.379 95.3742 102.058V96.1615L96.0773 95.3904V93.4756L95.3742 92.592V66.2529H100.132V101.993C100.132 103.575 100.992 104.96 102.272 105.696Z" fill="#FEE45A"/>
      <path d="M95.3742 92.5923H104.414V96.1618H95.3742V92.5923Z" fill="#4A80AA"/>
      <path d="M95.3742 92.5923H100.132V96.1618H95.3742V92.5923Z" fill="#407093"/>
      <path d="M106.134 26.0435V66.956C106.134 67.863 105.401 68.5966 104.494 68.5966H95.2946C94.3875 68.5966 93.6539 67.863 93.6539 66.956V39.1333L95.9977 37.3825V33.5153L93.6539 31.7669V26.0435C93.6539 25.1364 94.3875 24.4028 95.2946 24.4028H104.494C105.401 24.4028 106.134 25.1364 106.134 26.0435V26.0435Z" fill="#EE7249"/>
      <path d="M98.4094 24.4028V68.5966H95.2946C94.3875 68.5966 93.6539 67.863 93.6539 66.956V39.1333L95.9977 37.3825V33.5153L93.6539 31.7669V26.0435C93.6539 25.1364 94.3875 24.4028 95.2946 24.4028H98.4094Z" fill="#E8442D"/>
      <path d="M111.84 39.1338H93.6532V31.7681H113.48V37.4931C113.48 37.9283 113.307 38.3456 113 38.6532C112.692 38.9609 112.275 39.1338 111.84 39.1338Z" fill="#FEE97D"/>
      <path d="M93.6528 31.7681H98.4099V39.1345H93.6528V31.7681Z" fill="#FEE45A"/>
      <path d="M113.264 51.9536C112.354 51.8465 111.696 51.0238 111.696 50.1077V33.6271C111.696 32.7109 112.354 31.8883 113.264 31.7812C113.514 31.7506 113.769 31.7736 114.01 31.8487C114.251 31.9237 114.474 32.0491 114.663 32.2165C114.852 32.3839 115.003 32.5896 115.107 32.8199C115.211 33.0501 115.264 33.2998 115.264 33.5523V50.1827C115.264 51.239 114.346 52.0811 113.264 51.9536V51.9536Z" fill="#4A80AA"/>
    </g>
  </symbol>

  <symbol id="profit-XL">
    <path d="M98.9124 38.9062C98.9124 49.5935 94.553 59.2966 87.592 66.2578C80.6311 73.2188 70.928 77.5781 60.2405 77.5781C38.8657 77.5781 21.5686 60.281 21.5686 38.9062C21.5686 28.2185 25.928 18.5154 32.8889 11.5547C39.8499 4.59398 49.553 0 60.2405 0C70.928 0 80.6313 4.35937 87.592 11.3203C94.5527 18.2812 98.9124 28.2185 98.9124 38.9062Z" fill="#FEA832"/>
    <path d="M98.9124 38.9062C98.9124 49.5935 94.553 59.2966 87.592 66.2578C80.6311 73.2188 70.928 77.5781 60.2405 77.5781V0C70.9282 0 80.6313 4.35937 87.592 11.3203C94.5527 18.2812 98.9124 28.2185 98.9124 38.9062Z" fill="#FE9923"/>
    <path d="M60.2405 70.5469C42.7929 70.5469 28.5999 56.3538 28.5999 38.9062C28.5999 30.4467 31.8888 22.4988 37.8626 16.5251C43.8331 10.5546 51.7809 7.03125 60.2405 7.03125C68.7 7.03125 76.6479 10.3202 82.6217 16.294C88.5921 22.2645 91.8811 30.4467 91.8811 38.9062C91.8811 47.3658 88.5921 55.3137 82.6184 61.2874C76.6479 67.2579 68.7 70.5469 60.2405 70.5469Z" fill="#FEDB41"/>
    <path d="M82.6184 61.2874C88.5921 55.3137 91.8811 47.3658 91.8811 38.9062C91.8811 30.4467 88.5921 22.2645 82.6217 16.294C76.6479 10.3202 68.7 7.03125 60.2405 7.03125V70.5469C68.7 70.5469 76.6479 67.2579 82.6184 61.2874Z" fill="#FFCC33"/>
    <path d="M70.7874 45.9375C70.7874 50.156 68.2561 54.2344 63.7561 55.8513V60C63.7561 61.9685 62.2095 63.5156 60.2405 63.5156C58.2715 63.5156 56.7249 61.9685 56.7249 60V55.8513C54.8967 55.2187 53.1389 54.2344 51.5217 52.6873C50.1155 51.3513 50.1155 49.1018 51.4514 47.6953C52.7874 46.2888 55.0374 46.2891 56.4438 47.625C57.6389 48.8201 58.9751 49.4531 60.2405 49.4531C60.7327 49.4531 61.1545 49.3828 61.5764 49.1716C62.9124 48.6094 63.7561 47.344 63.7561 45.9375C63.7561 43.9685 62.2095 42.4219 60.2405 42.4219C54.4043 42.4219 49.6936 37.7107 49.6936 31.875C49.6936 27.4453 52.5063 23.5078 56.6545 21.9607H56.7249V17.8125C56.7249 15.8435 58.2715 14.0625 60.2405 14.0625C62.2095 14.0625 63.7561 15.8435 63.7561 17.8125V21.8904C66.0767 22.6641 68.2561 24.2109 70.1543 26.5312C71.4204 28.008 71.2092 30.1877 69.7324 31.4531C68.2561 32.7187 66.0764 32.5076 64.8108 31.0312C63.334 29.2734 61.717 28.3594 60.2402 28.3594C59.8184 28.3594 59.4668 28.4297 59.0449 28.5701C57.6387 29.0623 56.7244 30.3982 56.7244 31.875C56.7244 33.8435 58.271 35.3906 60.24 35.3906C66.0767 35.3906 70.7874 40.1013 70.7874 45.9375V45.9375Z" fill="#FEA832"/>
    <path d="M70.7874 45.9375C70.7874 50.156 68.2561 54.2344 63.7561 55.8513V60C63.7561 61.9685 62.2095 63.5156 60.2405 63.5156V49.4531C60.7327 49.4531 61.1545 49.3828 61.5764 49.1716C62.9124 48.6094 63.7561 47.344 63.7561 45.9375C63.7561 43.9685 62.2095 42.4219 60.2405 42.4219V35.3906C66.0767 35.3906 70.7874 40.1013 70.7874 45.9375ZM64.811 31.0312C63.3342 29.2734 61.7173 28.3594 60.2405 28.3594V14.0625C62.2095 14.0625 63.7561 15.8435 63.7561 17.8125V21.8904C66.0767 22.6641 68.2561 24.2109 70.1543 26.5312C71.4204 28.008 71.2092 30.1877 69.7324 31.4531C68.2563 32.7187 66.0767 32.5076 64.811 31.0312V31.0312Z" fill="#FE9923"/>
    <path d="M117.124 64.8513C114.24 62.7419 110.233 63.1638 107.842 65.7653L88.8579 89.3903C87.522 90.7966 84.9907 91.6403 83.6548 91.6403H53.2092C51.2402 91.6403 49.6936 90.0937 49.6936 88.1247C49.6936 86.1557 51.2402 84.6091 53.2092 84.6091H81.3342C85.2014 84.6091 88.3655 81.445 88.3655 77.5778C88.3655 73.7107 85.2014 70.5466 81.3342 70.5466H62.9124C61.1602 70.5466 60.2864 69.4354 58.9045 68.226C53.2781 63.1628 45.0113 60.8139 36.4643 63.0953C29.8606 64.8581 26.6787 67.9722 21.5686 72.4694V112.968H81.3342C87.9436 112.968 94.272 109.57 98.2095 104.297L118.6 74.7653C120.92 71.6714 120.287 67.1718 117.124 64.8513V64.8513Z" fill="#FEDBAB"/>
    <path d="M88.3655 77.5777C88.3655 73.7105 85.2014 70.5464 81.3342 70.5464H62.9124C61.7794 70.5464 61.0137 70.0606 60.2405 69.4053V84.6089H81.3342C85.2014 84.6089 88.3655 81.4449 88.3655 77.5777V77.5777Z" fill="#FEC478"/>
    <path d="M107.842 65.7653L88.8579 89.3903C87.522 90.7966 84.9907 91.6403 83.6548 91.6403H60.2405V112.968H81.3342C87.9436 112.968 94.272 109.57 98.2095 104.297L118.6 74.7653C120.92 71.6716 120.287 67.1718 117.124 64.8515C114.24 62.7419 110.233 63.1638 107.842 65.7653V65.7653Z" fill="#FEC478"/>
    <path d="M18.053 120H3.52173C1.57853 120 0.00610352 118.428 0.00610352 116.484V67.0312C0.00610352 65.088 1.57853 63.5156 3.52173 63.5156H18.053C23.8688 63.5156 28.5999 68.2467 28.5999 74.0625V109.453C28.5999 115.269 23.869 120 18.053 120Z" fill="#AA3DC8"/>
  </symbol>

  <symbol id="pay-XL">
    <path d="M60.0002 80.438C71.2877 80.438 80.438 71.2877 80.438 60.0002C80.438 48.7128 71.2877 39.5625 60.0002 39.5625C48.7128 39.5625 39.5625 48.7128 39.5625 60.0002C39.5625 71.2877 48.7128 80.438 60.0002 80.438Z" fill="#FFD064"/>
    <path d="M60.0002 82.2487C47.7323 82.2487 37.7515 72.2679 37.7515 60C37.7515 47.7321 47.7323 37.7515 60.0002 37.7515C72.2681 37.7515 82.249 47.7321 82.249 60C82.249 72.2679 72.2681 82.2487 60.0002 82.2487ZM60.0002 41.3733C49.7292 41.3733 41.3733 49.7292 41.3733 60C41.3733 70.2708 49.7292 78.6269 60.0002 78.6269C70.2712 78.6269 78.6272 70.271 78.6272 60C78.6272 49.729 70.2712 41.3733 60.0002 41.3733Z" fill="#FFC250"/>
    <path d="M59.4328 73.0438C56.4255 73.0438 54.6912 72.8227 51.7106 71.2173C51.5013 71.1045 51.3162 70.9516 51.1659 70.7673C51.0156 70.583 50.9032 70.3709 50.8349 70.1431C50.7666 69.9153 50.7439 69.6763 50.768 69.4397C50.7921 69.2031 50.8626 68.9736 50.9754 68.7643C51.0881 68.5549 51.241 68.3697 51.4253 68.2194C51.6096 68.0691 51.8218 67.9566 52.0496 67.8883C52.2774 67.82 52.5165 67.7973 52.7531 67.8214C52.9897 67.8456 53.2193 67.9162 53.4286 68.0291C55.8473 69.3322 56.9702 69.4384 59.8162 69.421C63.2409 69.4023 65.3128 67.3888 65.5896 65.4097C65.8331 63.6671 64.6467 62.2815 62.3346 61.6084C58.166 60.3948 55.7737 59.4526 54.0769 58.3564C52.2 57.1442 51.27 54.9763 51.6497 52.6988C52.0978 50.0096 54.2477 47.8107 57.1261 47.0966C62.6948 45.7149 66.4026 48.467 66.5578 48.5846C66.9338 48.8762 67.18 49.3041 67.243 49.7757C67.3061 50.2473 67.181 50.7249 66.8948 51.105C66.6086 51.4851 66.1843 51.7374 65.7136 51.8072C65.243 51.877 64.7637 51.7587 64.3795 51.478C64.2485 51.3833 61.8005 49.6679 57.998 50.6117C56.2069 51.0561 55.3896 52.2887 55.222 53.2944C55.1545 53.6989 55.0994 54.7055 56.0419 55.3142C57.7556 56.4212 60.6963 57.3594 63.3471 58.1309C67.3847 59.3063 69.6729 62.3602 69.1765 65.9113C68.6841 69.4325 65.3177 73.0128 59.8362 73.0428C59.6991 73.0433 59.5648 73.0438 59.4328 73.0438Z" fill="#E49542"/>
    <path d="M59.8265 76.3477C59.5887 76.3477 59.3532 76.3009 59.1335 76.2099C58.9138 76.1189 58.7142 75.9855 58.546 75.8174C58.3779 75.6492 58.2445 75.4496 58.1535 75.2299C58.0625 75.0102 58.0157 74.7747 58.0157 74.5369V71.232C58.0157 70.7517 58.2065 70.2912 58.5461 69.9516C58.8857 69.612 59.3463 69.4212 59.8265 69.4212C60.3068 69.4212 60.7674 69.612 61.1069 69.9516C61.4465 70.2912 61.6373 70.7517 61.6373 71.232V74.5369C61.6372 75.0171 61.4464 75.4777 61.1069 75.8173C60.7673 76.1568 60.3068 76.3476 59.8265 76.3477V76.3477ZM59.8265 50.3421C59.5887 50.3422 59.3532 50.2953 59.1335 50.2044C58.9138 50.1134 58.7142 49.98 58.546 49.8118C58.3779 49.6437 58.2445 49.4441 58.1535 49.2243C58.0625 49.0046 58.0157 48.7692 58.0157 48.5313V45.4636C58.0157 44.9834 58.2065 44.5228 58.5461 44.1832C58.8857 43.8436 59.3463 43.6528 59.8265 43.6528C60.3068 43.6528 60.7674 43.8436 61.1069 44.1832C61.4465 44.5228 61.6373 44.9834 61.6373 45.4636V48.5313C61.6373 49.0116 61.4465 49.4722 61.1069 49.8118C60.7674 50.1514 60.3068 50.3421 59.8265 50.3421Z" fill="#E49542"/>
    <path d="M85.7165 92.519L60.8081 92.5586C57.8585 92.5057 55.3338 94.6629 54.9255 97.5846C54.5325 100.398 56.2225 103.085 58.9282 103.949L84.7938 100.785L85.7165 92.519Z" fill="#EAAC9D"/>
    <path d="M78.269 97.4658L53.3606 97.5054C50.411 97.4525 47.8863 99.6096 47.478 102.531C47.085 105.344 48.775 108.031 51.4807 108.896L77.3463 105.732L78.269 97.4658Z" fill="#FFCBBE"/>
    <path d="M43.8288 111.456C44.5542 112.705 45.7181 113.639 47.0943 114.077L52.7557 115.885L64.3743 119.597C66.3067 120.215 68.3963 120.12 70.2644 119.329L104.525 104.824L109.034 84.4386C113.65 84.395 109.034 84.4517 109.034 84.4386L104.362 73.4605L93.5081 72.0662C88.2471 71.3907 82.9062 71.7076 77.7621 73.0004C76.2714 73.3754 74.8021 73.8309 73.3607 74.3649L71.9296 74.8944C68.9732 75.9912 67.4233 79.2401 68.4328 82.2268C68.558 82.598 68.7203 82.9555 68.9172 83.2941C69.3836 84.0945 70.0339 84.7723 70.8143 85.2714C71.5947 85.7705 72.4828 86.0765 73.405 86.164L85.1348 87.2755L64.559 102.966L48.9747 102.687C46.0258 102.635 43.5011 104.792 43.0933 107.713C42.9112 109.008 43.1703 110.326 43.8288 111.456V111.456Z" fill="#FFDDCE"/>
    <path d="M52.7557 115.885L64.3743 119.597C66.3067 120.215 68.3963 120.12 70.2644 119.329L104.525 104.824L104.427 85.9133C104.28 107.832 59.1084 117.915 52.7557 115.885V115.885ZM104.419 84.4824C104.417 84.7946 104.419 85.1103 104.425 85.433L104.419 84.4824Z" fill="#FFCBBE"/>
    <path d="M104.525 104.824L118.658 105.412L118.582 90.4969L118.496 74.0487L104.363 73.4604L104.455 91.4166L104.525 104.824Z" fill="#DB5C6E"/>
    <path d="M104.525 104.824L118.658 105.412L118.582 90.4971C111.546 95.3674 104.455 91.4168 104.455 91.4168L104.525 104.824Z" fill="#D64553"/>
    <path d="M34.2834 27.4813L59.1919 27.4417C62.1415 27.4946 64.6662 25.3374 65.0745 22.4157C65.4675 19.6028 63.7774 16.9156 61.0718 16.0513L35.2062 19.2156L34.2834 27.4813Z" fill="#EAAC9D"/>
    <path d="M41.731 22.5335L66.6394 22.4939C69.589 22.5469 72.1137 20.3897 72.522 17.468C72.915 14.655 71.2249 11.9679 68.5193 11.1035L42.6537 14.2678L41.731 22.5335Z" fill="#FFCBBE"/>
    <path d="M76.1712 8.54481C75.4458 7.29587 74.2818 6.36138 72.9056 5.92309L67.2443 4.11512L55.6256 0.403086C53.6933 -0.214374 51.6037 -0.119085 49.7356 0.67168L15.4749 15.1764L15.5731 34.0872C15.5709 34.2253 15.5724 34.3631 15.5747 34.5023C15.5747 34.5248 15.5761 34.5466 15.5752 34.5677L15.5813 35.5183C15.5808 35.5336 15.5803 35.5488 15.5803 35.5619L15.6377 46.54L26.4919 47.9343C31.7528 48.6098 37.0937 48.2929 42.2379 47.0001C43.7286 46.6251 45.1978 46.1696 46.6392 45.6356L48.0703 45.1061C51.0267 44.0093 52.5767 40.7604 51.5672 37.7737C51.442 37.4025 51.2797 37.045 51.0827 36.7064C50.6164 35.906 49.9661 35.2281 49.1857 34.7291C48.4052 34.23 47.5171 33.924 46.5949 33.8364L34.8652 32.725L55.4409 17.0343L71.0252 17.3132C73.9741 17.366 76.4988 15.2086 76.9067 12.2871C77.0888 10.9925 76.8297 9.67422 76.1712 8.54481V8.54481Z" fill="#FFDDCE"/>
    <path d="M67.2443 4.11512L55.6256 0.403086C53.6933 -0.214374 51.6037 -0.119085 49.7356 0.67168L15.4749 15.1764L15.5731 34.0872C15.7198 12.168 60.8916 2.0852 67.2443 4.11512ZM15.5813 35.5181C15.5831 35.2059 15.5813 34.8902 15.5752 34.5675L15.5813 35.5181Z" fill="#FFCBBE"/>
    <path d="M15.4751 15.1764L1.34155 14.5884L1.41772 29.5033L1.50374 45.9515L15.6373 46.5398L15.5449 28.5836L15.4751 15.1764Z" fill="#80B4FB"/>
    <path d="M15.4751 15.1762L1.34155 14.5879L1.41772 29.5028C8.4539 24.6325 15.5449 28.5831 15.5449 28.5831L15.4751 15.1762Z" fill="#61A2F9"/>
  </symbol>
</svg>