<svg width="77" height="88" viewBox="0 0 77 88" fill="none" xmlns="http://www.w3.org/2000/svg">
<path d="M37.5458 87.0204C38.9964 86.8768 40.3698 86.2921 41.4728 85.3436L71.1231 59.9288C72.6178 58.7321 73.5609 56.9781 73.7376 55.0754C73.9139 53.1724 73.3129 51.2806 72.0721 49.8246C70.8255 48.374 69.0496 47.4862 67.1411 47.3704C65.233 47.2546 63.3577 47.9165 61.9457 49.2068L36.8839 70.6953L11.8221 49.2068C10.4102 47.9165 8.53503 47.2546 6.62665 47.3704C4.71827 47.4862 2.94235 48.374 1.6959 49.8246C0.454942 51.2806 -0.146246 53.1724 0.0302451 55.0754C0.206737 56.9781 1.14986 58.7321 2.64458 59.9288L32.2952 85.3436C33.7456 86.5901 35.643 87.1912 37.5458 87.0204Z" fill="white"/>
<path d="M37.5458 39.6631C38.9964 39.5195 40.3698 38.9349 41.4728 37.9863L71.1231 12.5716C72.6178 11.3747 73.5609 9.62093 73.7376 7.71805C73.9139 5.8152 73.3129 3.9235 72.0721 2.46736C70.8255 1.01688 69.0496 0.128919 67.1411 0.0129998C65.233 -0.102823 63.3577 0.559022 61.9457 1.84964L36.8839 23.3378L11.8221 1.84964C10.4102 0.559051 8.53503 -0.102779 6.62665 0.0129998C4.71827 0.128822 2.94235 1.0168 1.6959 2.46736C0.454942 3.92336 -0.146246 5.8152 0.0302451 7.71805C0.206737 9.62093 1.14986 11.3747 2.64458 12.5716L32.2952 37.9863C33.7456 39.2328 35.643 39.8339 37.5458 39.6631Z" fill="white"/>
</svg>
