<svg width="120" height="120" fill="none" xmlns="http://www.w3.org/2000/svg"><path d="M37.475 74.951c20.697 0 37.475-16.778 37.475-37.475C74.95 16.78 58.172.001 37.475.001 16.778.001 0 16.779 0 37.476c0 20.697 16.778 37.475 37.475 37.475z" fill="#5591D6"/><path d="M74.95 37.475C74.95 58.172 58.172 74.95 37.475 74.95c-1.385 0-2.751-.075-4.096-.221 18.77-2.041 33.377-17.942 33.377-37.254 0-19.312-14.61-35.213-33.379-37.254A37.993 37.993 0 0137.474 0C58.171 0 74.95 16.778 74.95 37.475z" fill="#1475CB"/><path d="M37.475 66.187c15.857 0 28.712-12.854 28.712-28.712 0-15.857-12.855-28.712-28.712-28.712S8.763 21.618 8.763 37.475c0 15.858 12.855 28.712 28.712 28.712z" fill="#F8F3F1"/><path d="M66.188 37.475c0 15.857-12.855 28.712-28.714 28.712-1.17 0-2.325-.07-3.46-.206 14.226-1.709 25.252-13.82 25.252-28.506S48.24 10.678 34.014 8.97a28.977 28.977 0 013.46-.206c15.859 0 28.714 12.855 28.714 28.711z" fill="#E5E1E5"/><path d="M41.212 49.345l-6.038-10.067 4.999-2.998 6.038 10.067c.38.633.174 1.453-.459 1.833l-2.707 1.624a1.336 1.336 0 01-1.833-.459z" fill="#FEE265"/><path d="M37.537 36.361c-1 0-1.811-.81-1.811-1.81V23.074a1.81 1.81 0 013.622 0V34.55c0 1-.81 1.811-1.811 1.811z" fill="#5591D6"/><path d="M37.475 41.607a4.132 4.132 0 100-8.263 4.132 4.132 0 000 8.263z" fill="#FB9927"/><path d="M58.95 39.237H58.914a1.81 1.81 0 01.008-3.622h.035a1.81 1.81 0 01-.007 3.622zM16.028 39.238h-.027a1.81 1.81 0 110-3.621h.027a1.81 1.81 0 110 3.621zM37.414 17.79c-1 0-1.811-.81-1.811-1.81v-.028a1.81 1.81 0 113.621 0v.028c0 1-.81 1.81-1.81 1.81zM37.537 60.712c-1 0-1.811-.811-1.811-1.811v-.028a1.81 1.81 0 113.621 0v.028c0 1-.81 1.81-1.81 1.81zM26.7 20.695a1.81 1.81 0 01-1.572-.91l-.013-.024a1.811 1.811 0 013.14-1.803l.014.024a1.81 1.81 0 01-1.569 2.713zM18.87 28.568c-.309 0-.62-.08-.907-.245l-.024-.013a1.81 1.81 0 111.816-3.134l.023.014a1.81 1.81 0 01-.909 3.378zM56.102 49.922c-.309 0-.62-.08-.906-.245l-.024-.014a1.81 1.81 0 111.815-3.133l.024.014a1.81 1.81 0 01-.91 3.378zM48.25 20.695a1.81 1.81 0 01-1.569-2.713l.014-.024a1.81 1.81 0 113.14 1.803l-.013.024a1.81 1.81 0 01-1.572.91zM26.683 57.804a1.811 1.811 0 01-1.569-2.713l.014-.024a1.81 1.81 0 113.14 1.804l-.013.024a1.81 1.81 0 01-1.572.91zM56.081 28.567a1.81 1.81 0 01-.91-3.378l.025-.014a1.81 1.81 0 011.815 3.134l-.024.014a1.802 1.802 0 01-.906.244zM18.849 49.921a1.81 1.81 0 01-.91-3.378l.025-.014a1.81 1.81 0 111.815 3.134l-.024.014a1.802 1.802 0 01-.906.244zM48.267 57.804a1.81 1.81 0 01-1.572-.909l-.013-.024a1.811 1.811 0 013.14-1.803l.014.024a1.81 1.81 0 01-1.569 2.712z" fill="#C9C0C7"/><path d="M82.525 120C103.222 120 120 103.221 120 82.525c0-20.698-16.778-37.476-37.475-37.476-20.697 0-37.475 16.779-37.475 37.476C45.05 103.22 61.828 120 82.525 120z" fill="#FCA62F"/><path d="M119.999 82.525C120.001 103.22 103.223 120 82.526 120c-1.385 0-2.751-.076-4.096-.222 18.77-2.041 33.377-17.941 33.377-37.254 0-19.312-14.61-35.212-33.379-37.253a38.062 38.062 0 014.096-.222c20.697 0 37.475 16.779 37.475 37.476z" fill="#FB9927"/><path d="M82.525 111.237c15.857 0 28.712-12.855 28.712-28.712 0-15.858-12.855-28.713-28.712-28.713S53.813 66.668 53.813 82.525c0 15.857 12.855 28.712 28.712 28.712z" fill="#FEE265"/><path d="M111.237 82.525c0 15.856-12.855 28.711-28.713 28.711-1.17 0-2.326-.07-3.46-.206 14.226-1.708 25.252-13.82 25.252-28.505 0-14.687-11.026-26.797-25.252-28.506a28.98 28.98 0 013.46-.206c15.858 0 28.713 12.855 28.713 28.712z" fill="#FDD330"/><path d="M101.148 91.693a1.81 1.81 0 00-2.488.608c-3.456 5.69-9.488 9.086-16.135 9.086-6.647 0-12.68-3.397-16.135-9.086a1.811 1.811 0 00-3.096 1.88c4.119 6.78 11.307 10.828 19.23 10.828 7.924 0 15.113-4.048 19.231-10.828a1.81 1.81 0 00-.607-2.488zM63.902 73.354c.854.519 1.968.247 2.488-.607 3.457-5.688 9.488-9.084 16.135-9.084 6.647 0 12.679 3.396 16.135 9.084a1.81 1.81 0 103.096-1.881c-4.12-6.778-11.308-10.825-19.23-10.825-7.923 0-15.112 4.047-19.23 10.825a1.81 1.81 0 00.606 2.488z" fill="#FCA62F"/><path d="M82.525 96.554c1 0 1.81-.81 1.81-1.81V92.74C87.252 91.929 89.4 89.216 89.4 86a5.295 5.295 0 00-5.29-5.287h-3.17a1.662 1.662 0 01-1.668-1.669 3.44 3.44 0 011.03-2.438 3.183 3.183 0 012.287-.93 3.261 3.261 0 013.016 2.208 1.811 1.811 0 003.43-1.163 6.895 6.895 0 00-4.7-4.42v-1.999a1.81 1.81 0 10-3.62 0v2.003a6.84 6.84 0 00-2.95 1.717 7.083 7.083 0 00-2.114 5.023c0 1.41.549 2.738 1.551 3.744a5.267 5.267 0 003.74 1.546h3.168c.92 0 1.669.747 1.669 1.666 0 1.824-1.492 3.365-3.258 3.365h-.074a3.256 3.256 0 01-3-2.203 1.811 1.811 0 00-3.43 1.16 6.885 6.885 0 004.698 4.419v2.001c-.001 1 .81 1.81 1.81 1.81zM63.616 81.17h2.238a1.81 1.81 0 100-3.622h-2.238a1.81 1.81 0 100 3.621zM65.854 87.499a1.81 1.81 0 100-3.622h-2.238a1.81 1.81 0 100 3.622h2.238zM99.195 77.547a1.81 1.81 0 100 3.622h2.238a1.81 1.81 0 100-3.622h-2.238zM101.433 83.877h-2.238a1.81 1.81 0 100 3.622h2.238a1.81 1.81 0 100-3.622z" fill="#FCA62F"/><path d="M104.561 17.992l-1.954 1.955a1.207 1.207 0 01-1.707 0l-7.822-7.822a2.344 2.344 0 00-3.314 0L82.4 19.488a2.344 2.344 0 000 3.315l7.821 7.822a1.207 1.207 0 010 1.707l-1.954 1.954c-1.49 1.49-.41 4.035 1.695 4l16.033-.26a2.345 2.345 0 002.306-2.305l.26-16.033c.034-2.106-2.511-3.185-4.001-1.695z" fill="#64B9FC"/><path d="M108.563 19.686l-.261 16.034a2.346 2.346 0 01-2.306 2.306l-3.4.056.206-12.633c.034-2.108-2.511-3.184-4.001-1.695l-1.1 1.101a2.415 2.415 0 01-3.415 0l-6.968-6.968a2.345 2.345 0 00-3.315 0l5.76-5.763a2.345 2.345 0 013.316 0l7.821 7.821a1.207 1.207 0 001.707 0l1.955-1.954c1.49-1.49 4.034-.41 4.001 1.695z" fill="#31A7FB"/><path d="M31.732 85.716l-1.955 1.954a1.207 1.207 0 000 1.707L37.6 97.2c.915.915.915 2.399 0 3.314l-7.363 7.363c-.916.916-2.4.916-3.315 0l-7.821-7.821a1.207 1.207 0 00-1.708 0l-1.954 1.954c-1.49 1.489-4.035.411-4-1.695l.26-16.033a2.344 2.344 0 012.305-2.306l16.033-.26c2.106-.034 3.185 2.511 1.696 4z" fill="#FCC16D"/><path d="M30.038 81.715l-16.035.26a2.345 2.345 0 00-2.306 2.306l-.055 3.4 12.632-.205c2.108-.034 3.185 2.51 1.695 4l-1.1 1.101a2.415 2.415 0 000 3.415l6.967 6.968c.915.915.915 2.4 0 3.315l5.764-5.761c.915-.915.915-2.4 0-3.315l-7.822-7.822a1.207 1.207 0 010-1.707l1.955-1.954c1.49-1.49.41-4.035-1.695-4.001z" fill="#FCA62F"/></svg>