<svg width="120" height="120" viewBox="0 0 120 120" fill="none"
  xmlns="http://www.w3.org/2000/svg">
  <path d="M60.0002 80.438C71.2877 80.438 80.438 71.2877 80.438 60.0002C80.438 48.7128 71.2877 39.5625 60.0002 39.5625C48.7128 39.5625 39.5625 48.7128 39.5625 60.0002C39.5625 71.2877 48.7128 80.438 60.0002 80.438Z" fill="#FFD064"/>
  <path d="M60.0002 82.2487C47.7323 82.2487 37.7515 72.2679 37.7515 60C37.7515 47.7321 47.7323 37.7515 60.0002 37.7515C72.2681 37.7515 82.249 47.7321 82.249 60C82.249 72.2679 72.2681 82.2487 60.0002 82.2487ZM60.0002 41.3733C49.7292 41.3733 41.3733 49.7292 41.3733 60C41.3733 70.2708 49.7292 78.6269 60.0002 78.6269C70.2712 78.6269 78.6272 70.271 78.6272 60C78.6272 49.729 70.2712 41.3733 60.0002 41.3733Z" fill="#FFC250"/>
  <path d="M59.4328 73.0438C56.4255 73.0438 54.6912 72.8227 51.7106 71.2173C51.5013 71.1045 51.3162 70.9516 51.1659 70.7673C51.0156 70.583 50.9032 70.3709 50.8349 70.1431C50.7666 69.9153 50.7439 69.6763 50.768 69.4397C50.7921 69.2031 50.8626 68.9736 50.9754 68.7643C51.0881 68.5549 51.241 68.3697 51.4253 68.2194C51.6096 68.0691 51.8218 67.9566 52.0496 67.8883C52.2774 67.82 52.5165 67.7973 52.7531 67.8214C52.9897 67.8456 53.2193 67.9162 53.4286 68.0291C55.8473 69.3322 56.9702 69.4384 59.8162 69.421C63.2409 69.4023 65.3128 67.3888 65.5896 65.4097C65.8331 63.6671 64.6467 62.2815 62.3346 61.6084C58.166 60.3948 55.7737 59.4526 54.0769 58.3564C52.2 57.1442 51.27 54.9763 51.6497 52.6988C52.0978 50.0096 54.2477 47.8107 57.1261 47.0966C62.6948 45.7149 66.4026 48.467 66.5578 48.5846C66.9338 48.8762 67.18 49.3041 67.243 49.7757C67.3061 50.2473 67.181 50.7249 66.8948 51.105C66.6086 51.4851 66.1843 51.7374 65.7136 51.8072C65.243 51.877 64.7637 51.7587 64.3795 51.478C64.2485 51.3833 61.8005 49.6679 57.998 50.6117C56.2069 51.0561 55.3896 52.2887 55.222 53.2944C55.1545 53.6989 55.0994 54.7055 56.0419 55.3142C57.7556 56.4212 60.6963 57.3594 63.3471 58.1309C67.3847 59.3063 69.6729 62.3602 69.1765 65.9113C68.6841 69.4325 65.3177 73.0128 59.8362 73.0428C59.6991 73.0433 59.5648 73.0438 59.4328 73.0438Z" fill="#E49542"/>
  <path d="M59.8265 76.3477C59.5887 76.3477 59.3532 76.3009 59.1335 76.2099C58.9138 76.1189 58.7142 75.9855 58.546 75.8174C58.3779 75.6492 58.2445 75.4496 58.1535 75.2299C58.0625 75.0102 58.0157 74.7747 58.0157 74.5369V71.232C58.0157 70.7517 58.2065 70.2912 58.5461 69.9516C58.8857 69.612 59.3463 69.4212 59.8265 69.4212C60.3068 69.4212 60.7674 69.612 61.1069 69.9516C61.4465 70.2912 61.6373 70.7517 61.6373 71.232V74.5369C61.6372 75.0171 61.4464 75.4777 61.1069 75.8173C60.7673 76.1568 60.3068 76.3476 59.8265 76.3477V76.3477ZM59.8265 50.3421C59.5887 50.3422 59.3532 50.2953 59.1335 50.2044C58.9138 50.1134 58.7142 49.98 58.546 49.8118C58.3779 49.6437 58.2445 49.4441 58.1535 49.2243C58.0625 49.0046 58.0157 48.7692 58.0157 48.5313V45.4636C58.0157 44.9834 58.2065 44.5228 58.5461 44.1832C58.8857 43.8436 59.3463 43.6528 59.8265 43.6528C60.3068 43.6528 60.7674 43.8436 61.1069 44.1832C61.4465 44.5228 61.6373 44.9834 61.6373 45.4636V48.5313C61.6373 49.0116 61.4465 49.4722 61.1069 49.8118C60.7674 50.1514 60.3068 50.3421 59.8265 50.3421Z" fill="#E49542"/>
  <path d="M85.7165 92.519L60.8081 92.5586C57.8585 92.5057 55.3338 94.6629 54.9255 97.5846C54.5325 100.398 56.2225 103.085 58.9282 103.949L84.7938 100.785L85.7165 92.519Z" fill="#EAAC9D"/>
  <path d="M78.269 97.4658L53.3606 97.5054C50.411 97.4525 47.8863 99.6096 47.478 102.531C47.085 105.344 48.775 108.031 51.4807 108.896L77.3463 105.732L78.269 97.4658Z" fill="#FFCBBE"/>
  <path d="M43.8288 111.456C44.5542 112.705 45.7181 113.639 47.0943 114.077L52.7557 115.885L64.3743 119.597C66.3067 120.215 68.3963 120.12 70.2644 119.329L104.525 104.824L109.034 84.4386C113.65 84.395 109.034 84.4517 109.034 84.4386L104.362 73.4605L93.5081 72.0662C88.2471 71.3907 82.9062 71.7076 77.7621 73.0004C76.2714 73.3754 74.8021 73.8309 73.3607 74.3649L71.9296 74.8944C68.9732 75.9912 67.4233 79.2401 68.4328 82.2268C68.558 82.598 68.7203 82.9555 68.9172 83.2941C69.3836 84.0945 70.0339 84.7723 70.8143 85.2714C71.5947 85.7705 72.4828 86.0765 73.405 86.164L85.1348 87.2755L64.559 102.966L48.9747 102.687C46.0258 102.635 43.5011 104.792 43.0933 107.713C42.9112 109.008 43.1703 110.326 43.8288 111.456V111.456Z" fill="#FFDDCE"/>
  <path d="M52.7557 115.885L64.3743 119.597C66.3067 120.215 68.3963 120.12 70.2644 119.329L104.525 104.824L104.427 85.9133C104.28 107.832 59.1084 117.915 52.7557 115.885V115.885ZM104.419 84.4824C104.417 84.7946 104.419 85.1103 104.425 85.433L104.419 84.4824Z" fill="#FFCBBE"/>
  <path d="M104.525 104.824L118.658 105.412L118.582 90.4969L118.496 74.0487L104.363 73.4604L104.455 91.4166L104.525 104.824Z" fill="#DB5C6E"/>
  <path d="M104.525 104.824L118.658 105.412L118.582 90.4971C111.546 95.3674 104.455 91.4168 104.455 91.4168L104.525 104.824Z" fill="#D64553"/>
  <path d="M34.2834 27.4813L59.1919 27.4417C62.1415 27.4946 64.6662 25.3374 65.0745 22.4157C65.4675 19.6028 63.7774 16.9156 61.0718 16.0513L35.2062 19.2156L34.2834 27.4813Z" fill="#EAAC9D"/>
  <path d="M41.731 22.5335L66.6394 22.4939C69.589 22.5469 72.1137 20.3897 72.522 17.468C72.915 14.655 71.2249 11.9679 68.5193 11.1035L42.6537 14.2678L41.731 22.5335Z" fill="#FFCBBE"/>
  <path d="M76.1712 8.54481C75.4458 7.29587 74.2818 6.36138 72.9056 5.92309L67.2443 4.11512L55.6256 0.403086C53.6933 -0.214374 51.6037 -0.119085 49.7356 0.67168L15.4749 15.1764L15.5731 34.0872C15.5709 34.2253 15.5724 34.3631 15.5747 34.5023C15.5747 34.5248 15.5761 34.5466 15.5752 34.5677L15.5813 35.5183C15.5808 35.5336 15.5803 35.5488 15.5803 35.5619L15.6377 46.54L26.4919 47.9343C31.7528 48.6098 37.0937 48.2929 42.2379 47.0001C43.7286 46.6251 45.1978 46.1696 46.6392 45.6356L48.0703 45.1061C51.0267 44.0093 52.5767 40.7604 51.5672 37.7737C51.442 37.4025 51.2797 37.045 51.0827 36.7064C50.6164 35.906 49.9661 35.2281 49.1857 34.7291C48.4052 34.23 47.5171 33.924 46.5949 33.8364L34.8652 32.725L55.4409 17.0343L71.0252 17.3132C73.9741 17.366 76.4988 15.2086 76.9067 12.2871C77.0888 10.9925 76.8297 9.67422 76.1712 8.54481V8.54481Z" fill="#FFDDCE"/>
  <path d="M67.2443 4.11512L55.6256 0.403086C53.6933 -0.214374 51.6037 -0.119085 49.7356 0.67168L15.4749 15.1764L15.5731 34.0872C15.7198 12.168 60.8916 2.0852 67.2443 4.11512ZM15.5813 35.5181C15.5831 35.2059 15.5813 34.8902 15.5752 34.5675L15.5813 35.5181Z" fill="#FFCBBE"/>
  <path d="M15.4751 15.1764L1.34155 14.5884L1.41772 29.5033L1.50374 45.9515L15.6373 46.5398L15.5449 28.5836L15.4751 15.1764Z" fill="#80B4FB"/>
  <path d="M15.4751 15.1762L1.34155 14.5879L1.41772 29.5028C8.4539 24.6325 15.5449 28.5831 15.5449 28.5831L15.4751 15.1762Z" fill="#61A2F9"/>
</svg>
