<svg width="94" height="94" fill="none" xmlns="http://www.w3.org/2000/svg"><path d="M89 0H5a5 5 0 00-5 5v84a5 5 0 005 5h84a5 5 0 005-5V5a5 5 0 00-5-5zM74.869 52.943c2.562 2.5 5.271 4.854 7.572 7.617 1.018 1.22 1.978 2.48 2.709 3.899 1.041 2.024.101 4.247-1.713 4.366l-11.256-.003c-2.906.239-5.22-.931-7.172-2.918-1.555-1.585-3.001-3.277-4.5-4.914-.611-.673-1.259-1.306-2.025-1.806-1.534-.996-2.867-.692-3.748.909-.896 1.63-1.103 3.438-1.185 5.255-.125 2.655-.925 3.348-3.588 3.471-5.69.268-11.091-.596-16.108-3.463-4.429-2.53-7.854-6.104-10.838-10.146-5.816-7.883-10.27-16.536-14.27-25.437-.901-2.005-.242-3.078 1.967-3.119 3.676-.073 7.351-.063 11.022-.004 1.496.023 2.485.879 3.058 2.289 1.985 4.885 4.421 9.533 7.471 13.843.813 1.147 1.643 2.292 2.823 3.103 1.304.896 2.298.601 2.913-.854.393-.928.563-1.914.647-2.906.292-3.396.327-6.792-.177-10.175-.315-2.116-1.507-3.483-3.617-3.883-1.074-.204-.917-.602-.395-1.215.906-1.062 1.76-1.718 3.456-1.718l12.721-.002c2.006.392 2.452 1.292 2.725 3.311l.012 14.133c-.021.782.391 3.098 1.795 3.61 1.123.371 1.868-.53 2.54-1.244 3.048-3.235 5.22-7.056 7.167-11.009.857-1.743 1.6-3.549 2.32-5.356.533-1.337 1.367-1.995 2.875-1.971l12.246.013c.36 0 .729.004 1.086.063 2.062.355 2.627 1.243 1.99 3.257-1.004 3.163-2.959 5.799-4.871 8.441-2.043 2.825-4.224 5.557-6.252 8.396-1.858 2.604-1.708 3.912.6 6.167z" fill="black"/></svg>